<?xml version="1.0" standalone="no"?>
<!DOCTYPE svg PUBLIC "-//W3C//DTD SVG 20010904//EN"
 "http://www.w3.org/TR/2001/REC-SVG-20010904/DTD/svg10.dtd">
<svg version="1.0" xmlns="http://www.w3.org/2000/svg"
 width="702.000000pt" height="742.000000pt" viewBox="0 0 702.000000 742.000000"
 preserveAspectRatio="xMidYMid meet">

<g transform="translate(0.000000,742.000000) scale(0.100000,-0.100000)"
fill="#FFFFFF" stroke="none">
<path d="M1284 6391 c-103 -25 -207 -118 -237 -211 -16 -49 -17 -226 -17
-2490 l0 -2437 30 -61 c36 -72 92 -124 169 -161 l56 -26 2210 0 c1824 0 2217
2 2250 13 61 21 143 81 176 129 65 94 60 -113 60 2550 0 1630 -4 2435 -10
2461 -13 48 -63 123 -104 158 -18 15 -57 39 -87 53 l-55 26 -2205 2 c-1213 0
-2219 -2 -2236 -6z m2532 -1046 c165 -154 336 -315 381 -358 l81 -78 104 98
c243 230 234 223 272 223 25 0 45 -8 68 -29 27 -24 33 -36 33 -72 0 -47 36 -7
-333 -357 l-141 -134 -163 154 c-416 392 -609 569 -617 566 -5 -2 -176 -163
-381 -358 -205 -195 -375 -356 -379 -358 -7 -2 -455 416 -478 447 -15 20 -17
76 -3 102 13 24 61 49 94 49 27 0 64 -31 270 -224 l116 -108 232 223 c128 123
297 286 376 362 79 76 149 137 157 135 7 -2 147 -129 311 -283z m219 -1039
c132 -124 242 -226 246 -226 4 0 69 60 145 133 171 163 188 177 229 177 60 0
113 -63 100 -120 -4 -19 -78 -96 -232 -241 -124 -118 -230 -216 -235 -217 -5
-2 -39 25 -76 60 -347 327 -707 658 -713 656 -4 -2 -175 -163 -379 -358 -205
-195 -376 -357 -381 -358 -9 -4 -155 129 -376 342 -99 95 -113 113 -113 142 0
71 89 126 146 89 14 -9 76 -64 137 -123 62 -58 131 -124 154 -146 l42 -39 38
33 c21 18 195 184 386 367 l349 334 146 -139 c81 -77 255 -241 387 -366z m-2
-840 c247 -234 348 -337 352 -357 7 -32 -15 -81 -47 -103 -12 -9 -40 -16 -61
-16 -35 0 -47 9 -170 129 -241 234 -601 571 -608 569 -6 -3 -275 -257 -641
-605 -80 -77 -102 -93 -128 -93 -74 0 -129 70 -104 134 3 8 137 140 297 293
161 153 356 340 435 416 l144 137 92 -87 c51 -49 248 -236 439 -417z m-2373
320 c107 -94 195 -176 195 -182 0 -5 -72 -74 -160 -153 -88 -79 -179 -162
-202 -185 l-43 -40 0 99 1 100 99 88 99 88 -99 87 -99 87 -1 93 c0 50 3 92 8
91 4 0 95 -78 202 -173z m3882 -2 c-1 -6 -45 -48 -97 -93 -52 -45 -92 -88 -89
-94 3 -7 46 -48 95 -91 l89 -80 0 -94 0 -94 -77 69 c-198 174 -323 288 -323
294 0 7 133 131 295 274 l100 89 5 -85 c3 -46 4 -89 2 -95z m-1604 -1068 l292
-278 0 -42 c0 -33 -6 -48 -27 -68 -33 -30 -67 -40 -99 -28 -13 5 -153 131
-311 280 -158 148 -290 270 -293 270 -3 0 -125 -114 -271 -252 -145 -139 -277
-263 -293 -275 -55 -43 -125 -23 -153 44 -13 31 -12 38 4 68 10 18 175 182
367 365 l349 332 71 -70 c39 -38 203 -194 364 -346z m-367 -202 l24 -26 -3
-316 -3 -317 -25 -22 c-28 -26 -88 -31 -115 -10 -36 28 -39 50 -39 352 0 359
1 362 96 364 31 1 46 -5 65 -25z"/>
</g>
</svg>
